<?xml version="1.0" encoding="UTF-8" standalone="no"?>
<svg width="24px" height="24px" viewBox="0 0 24 24" version="1.1" xmlns="http://www.w3.org/2000/svg" xmlns:xlink="http://www.w3.org/1999/xlink">
<path fill="#fff" d="M19.1169528,4 L4.8830472,4 C4.395303,4 4,4.39524306 4,4.8830472 L4,19.1169528 C4,19.604637 4.395303,20 4.8830472,20 L12.5460745,20 L12.5460745,13.8039821 L10.460992,13.8039821 L10.460992,11.3892407 L12.5460745,11.3892407 L12.5460745,9.60845879 C12.5460745,7.54184058 13.8082984,6.4165399 15.6518468,6.4165399 C16.534894,6.4165399 17.2939069,6.48230384 17.5150584,6.51167879 L17.5150584,8.67139763 L16.2364684,8.67199712 C15.2338232,8.67199712 15.0397086,9.14841098 15.0397086,9.84753498 L15.0397086,11.3892407 L17.4308902,11.3892407 L17.1195156,13.8039821 L15.0397086,13.8039821 L15.0397086,20 L19.1169528,20 C19.604637,20 20,19.604637 20,19.1169528 L20,4.8830472 C20,4.39524306 19.604637,4 19.1169528,4"></path>
</svg>
