<?xml version="1.0" encoding="UTF-8" standalone="no"?>
<svg width="24px" height="24px" viewBox="0 0 24 24" version="1.1" xmlns="http://www.w3.org/2000/svg" xmlns:xlink="http://www.w3.org/1999/xlink">
    <path fill="#fff" d="M4.02168405,11.5997053 C4.09195378,7.47839178 7.95706648,3.86921347 12.161307,4.00670857 C14.1757984,3.91495442 16.0694703,4.77423072 17.6123491,5.98119266 C16.9538135,6.71468137 16.2719471,7.4212156 15.5434195,8.08200888 C13.688632,6.82549425 11.0508787,6.46637339 9.19609119,7.91783156 C6.54278408,9.71670309 6.42196459,13.9640765 8.97417217,15.9004431 C11.45611,18.1082605 16.1472392,17.0121114 16.832994,13.6316378 C15.2784499,13.6087674 13.7197396,13.6316378 12.1651954,13.5820851 C12.161307,12.6729839 12.1574186,11.7638826 12.161307,10.8550536 C14.7601759,10.8474301 17.3590448,10.8433461 19.9618021,10.8626771 C20.1176176,13.0016108 19.8293173,15.2780395 18.4889153,17.0464171 C16.4588702,19.8461441 12.3835038,20.6634912 9.20386808,19.4641527 C6.0128448,18.2724378 3.75282597,14.9684714 4.02168405,11.5997053"></path>
</svg>
